<?xml version="1.0" encoding="UTF-8" standalone="no"?>
<!-- Created with Inkscape (http://www.inkscape.org/) -->

<svg
   version="1.1"
   id="svg2"
   width="1116.8933"
   height="182.69333"
   viewBox="0 0 1116.8933 182.69333"
   sodipodi:docname="CBC_Logo_Horizontal_PMS280C.eps"
   xmlns:inkscape="http://www.inkscape.org/namespaces/inkscape"
   xmlns:sodipodi="http://sodipodi.sourceforge.net/DTD/sodipodi-0.dtd"
   xmlns="http://www.w3.org/2000/svg"
   xmlns:svg="http://www.w3.org/2000/svg">
  <defs
     id="defs6" />
  <sodipodi:namedview
     id="namedview4"
     pagecolor="#ffffff"
     bordercolor="#000000"
     borderopacity="0.25"
     inkscape:showpageshadow="2"
     inkscape:pageopacity="0.0"
     inkscape:pagecheckerboard="0"
     inkscape:deskcolor="#d1d1d1" />
  <g
     id="g8"
     inkscape:groupmode="layer"
     inkscape:label="ink_ext_XXXXXX"
     transform="matrix(1.3333333,0,0,-1.3333333,0,182.69333)">
    <g
       id="g10"
       transform="scale(0.1)">
      <path
         d="m 2811.56,1361.24 h -98.98 V 884.723 h 345.78 V 973.5 h -246.8 v 387.74"
         style="fill:#222d62;fill-opacity:1;fill-rule:nonzero;stroke:none"
         id="path12" />
      <path
         d="m 3969.6,1112.11 -114.97,248.49 h -11.94 l -114.93,-247.78 -88.35,247.78 H 3534 l 174.59,-473.338 1.17,-3.176 h 14.77 l 124.43,265.684 123.18,-265.047 h 15.4 l 177.73,475.877 h -105.42 l -90.25,-248.49"
         style="fill:#222d62;fill-opacity:1;fill-rule:nonzero;stroke:none"
         id="path14" />
      <path
         d="m 4208.58,884.723 h 353.44 v 90.058 h -254.46 v 99.969 h 225.76 v 90.71 h -225.76 v 106.99 h 254.46 v 88.79 H 4208.58 V 884.723"
         style="fill:#222d62;fill-opacity:1;fill-rule:nonzero;stroke:none"
         id="path16" />
      <path
         d="m 4741.02,1361.24 h -98.99 V 884.723 h 345.78 V 973.5 h -246.79 v 387.74"
         style="fill:#222d62;fill-opacity:1;fill-rule:nonzero;stroke:none"
         id="path18" />
      <path
         d="m 5131.67,1361.24 h -98.98 V 884.723 h 345.79 V 973.5 h -246.81 v 387.74"
         style="fill:#222d62;fill-opacity:1;fill-rule:nonzero;stroke:none"
         id="path20" />
      <path
         d="m 5980.97,1104.65 c -9.28,10.15 -19.94,18.31 -31.68,24.27 -4.47,2.27 -8.99,4.18 -13.53,5.72 3.62,1.55 7.11,3.44 10.5,5.68 9.77,6.46 18.24,14.5 25.15,23.88 6.83,9.27 12.31,19.59 16.29,30.66 3.99,11.14 6.02,21.81 6.02,31.7 0,26.96 -3.79,49.45 -11.24,66.83 -7.52,17.52 -17.9,31.5 -30.82,41.57 -12.85,9.99 -28.09,16.96 -45.3,20.73 -16.87,3.69 -35.03,5.55 -53.96,5.55 H 5642.2 V 884.723 h 220.4 c 20.3,0 39.71,2.41 57.68,7.156 18.27,4.832 34.44,12.961 48.07,24.156 13.71,11.25 24.68,26.192 32.63,44.43 7.88,18.133 11.87,40.495 11.87,66.495 0,15.05 -3.04,29.43 -9.04,42.7 -5.92,13.13 -13.61,24.9 -22.84,34.99 m -67.1,-72.86 c 0,-6.99 -1.39,-14 -4.12,-20.84 -2.79,-6.97 -6.61,-13.395 -11.35,-19.114 -4.68,-5.652 -10.19,-10.188 -16.4,-13.477 -6.07,-3.222 -12.59,-4.859 -19.4,-4.859 h -121.42 v 108.92 h 111.85 c 19.05,0 34.15,-4.94 44.88,-14.68 10.74,-9.77 15.96,-21.53 15.96,-35.95 m -19.14,192.92 c 0,-6.26 -1.1,-12.76 -3.25,-19.31 -2.16,-6.49 -5.32,-12.35 -9.39,-17.41 -4.02,-5.01 -9.08,-9.12 -15.03,-12.21 -5.86,-3.04 -12.94,-4.58 -21.04,-4.58 h -104.84 v 101.25 h 111.22 c 5.54,0 10.89,-1.32 15.94,-3.94 5.18,-2.71 9.77,-6.24 13.62,-10.49 3.85,-4.27 6.98,-9.39 9.29,-15.22 2.31,-5.81 3.48,-11.89 3.48,-18.09"
         style="fill:#222d62;fill-opacity:1;fill-rule:nonzero;stroke:none"
         id="path22" />
      <path
         d="M 6265.91,1360.6 6022.44,884.723 h 107.9 l 35.71,73.34 h 213.96 l 36.35,-73.34 h 107.88 L 6280.77,1360.6 Z m 66.11,-315.03 h -117.96 l 59.26,124.73 z"
         style="fill:#222d62;fill-opacity:1;fill-rule:nonzero;stroke:none"
         id="path24" />
      <path
         d="m 6881.45,1084.93 -298.6,274.39 -1.39,1.28 h -16.31 V 884.723 h 98.98 v 271.317 l 300.04,-271.317 h 16.27 V 1360.6 h -98.99 v -275.67"
         style="fill:#222d62;fill-opacity:1;fill-rule:nonzero;stroke:none"
         id="path26" />
      <path
         d="M 7474.51,1360.6 H 7352.4 l -178.36,-227.39 v 228.03 h -98.98 V 884.723 h 98.98 v 204.787 l 188.8,-204.787 h 131.29 l -215.23,230.227 195.61,245.65"
         style="fill:#222d62;fill-opacity:1;fill-rule:nonzero;stroke:none"
         id="path28" />
      <path
         d="m 7536.69,884.723 h 353.44 v 90.058 h -254.45 v 99.979 h 225.75 v 90.7 h -225.75 v 106.99 h 254.45 v 88.79 H 7536.69 V 884.723"
         style="fill:#222d62;fill-opacity:1;fill-rule:nonzero;stroke:none"
         id="path30" />
      <path
         d="m 8069.12,1033.31 h 80.97 c 17.37,-24.86 34.85,-49.49 52,-73.236 17.82,-24.699 36.24,-49.414 54.76,-73.461 l 1.46,-1.89 h 118.4 l -5.59,7.707 c -36.88,50.785 -74.7,101.879 -112.5,151.93 27.49,12 50,30.86 66.96,56.15 18.14,27.06 27.34,59.08 27.34,95.17 0,23.86 -4.1,46.24 -12.17,66.52 -8.08,20.27 -19.51,37.98 -33.96,52.63 -14.45,14.65 -32.09,26.18 -52.44,34.27 -20.31,8.06 -42.95,12.14 -67.28,12.14 H 7970.15 V 884.723 h 98.97 z m 162.75,106.86 c -6.25,-6.08 -13.48,-10.66 -21.49,-13.59 -8.12,-2.98 -16.01,-4.49 -23.43,-4.49 h -117.83 v 150.36 h 117.83 c 14.66,0 26.41,-2.75 34.9,-8.16 8.62,-5.52 15.37,-12.27 20.05,-20.08 4.77,-7.97 7.98,-16.44 9.56,-25.16 1.64,-9.06 2.47,-16.92 2.47,-23.37 0,-12.4 -2.11,-23.31 -6.25,-32.43 -4.17,-9.16 -9.49,-16.93 -15.81,-23.08"
         style="fill:#222d62;fill-opacity:1;fill-rule:nonzero;stroke:none"
         id="path32" />
      <path
         d="m 2081.58,1294.42 c -15.13,15.33 -32.08,28.67 -50.39,39.66 -18.34,11 -38.48,19.64 -59.85,25.7 -21.37,6.04 -43.8,9.11 -66.68,9.11 -33.66,0 -65.85,-6.57 -95.68,-19.53 -29.75,-12.94 -56.11,-30.78 -78.34,-53 -22.23,-22.23 -40.06,-48.59 -52.99,-78.34 -12.97,-29.79 -19.53,-61.98 -19.53,-95.67 0,-33.7 6.56,-65.9 19.52,-95.68 12.95,-29.775 30.78,-56.135 53,-78.346 22.22,-22.219 48.57,-40.051 78.34,-53 29.83,-12.965 62.02,-19.531 95.68,-19.531 22.88,0 45.31,3.062 66.68,9.109 21.34,6.039 41.47,14.684 59.85,25.7 18.33,11.003 35.3,24.351 50.4,39.66 15.11,15.336 28.05,32.754 38.42,51.788 l 2.6,4.77 -92.24,37.32 -2.2,-3.28 c -6.61,-9.91 -14.46,-19.42 -23.31,-28.29 -8.83,-8.83 -18.73,-16.64 -29.4,-23.211 -10.7,-6.562 -22.12,-11.757 -33.98,-15.429 -11.81,-3.672 -24.19,-5.528 -36.82,-5.528 -20.43,0 -39.8,4.243 -57.56,12.61 -17.87,8.422 -33.57,19.758 -46.68,33.698 -13.15,13.96 -23.78,30.43 -31.58,48.94 -7.79,18.42 -11.73,38.17 -11.73,58.7 0,20.1 3.95,39.74 11.74,58.39 7.79,18.69 18.41,35.26 31.57,49.23 13.11,13.93 28.82,25.27 46.68,33.7 17.78,8.37 37.15,12.61 57.56,12.61 12.63,0 25.01,-1.86 36.82,-5.53 11.82,-3.66 23.26,-8.86 33.98,-15.43 10.68,-6.58 20.59,-14.3 29.43,-22.93 8.87,-8.66 16.7,-18.06 23.28,-27.93 l 2.18,-3.29 92.31,37.35 -2.68,4.8 c -10.37,18.58 -23.29,35.77 -38.4,51.1"
         style="fill:#222d62;fill-opacity:1;fill-rule:nonzero;stroke:none"
         id="path34" />
      <path
         d="m 2570.81,1297.64 c -22.24,22.23 -48.6,40.06 -78.35,52.99 -29.8,12.96 -62.2,19.53 -96.31,19.53 -33.69,0 -65.88,-6.57 -95.68,-19.53 -29.76,-12.93 -56.12,-30.76 -78.34,-52.99 -22.24,-22.24 -40.07,-48.72 -53,-78.68 -12.95,-30 -19.53,-62.3 -19.53,-95.98 0,-34.12 6.58,-66.53 19.53,-96.31 12.94,-29.775 30.78,-56.135 53,-78.346 22.2,-22.211 48.55,-40.043 78.34,-53 29.82,-12.965 62.02,-19.531 95.68,-19.531 34.09,0 66.49,6.566 96.31,19.531 29.77,12.949 56.13,30.785 78.35,53 22.23,22.231 40.06,48.586 52.98,78.346 12.97,29.78 19.54,62.19 19.54,96.31 0,33.68 -6.57,65.98 -19.53,95.98 -12.92,29.95 -30.75,56.42 -52.99,78.68 m -26.46,-174.66 c 0,-20.5 -3.94,-40.25 -11.72,-58.7 -7.81,-18.51 -18.52,-35.09 -31.83,-49.26 -13.32,-14.16 -29.11,-25.598 -46.91,-34.008 -17.71,-8.367 -37.03,-12.61 -57.42,-12.61 -20.39,0 -39.72,4.243 -57.44,12.61 -17.8,8.41 -33.58,19.848 -46.9,34.008 -13.32,14.17 -24.03,30.75 -31.84,49.26 -7.77,18.44 -11.71,38.19 -11.71,58.7 0,20.09 3.95,39.73 11.72,58.4 7.8,18.71 18.51,35.27 31.8,49.21 13.32,13.95 29.1,25.29 46.93,33.72 17.72,8.37 37.05,12.61 57.44,12.61 20.39,0 39.71,-4.24 57.42,-12.61 17.83,-8.43 33.62,-19.77 46.93,-33.72 13.3,-13.94 24,-30.5 31.8,-49.21 7.79,-18.68 11.73,-38.33 11.73,-58.4"
         style="fill:#222d62;fill-opacity:1;fill-rule:nonzero;stroke:none"
         id="path36" />
      <path
         d="m 3459.66,1301.3 c -43.62,39.77 -100,59.94 -167.56,59.94 H 3103.23 V 884.719 h 188.87 c 33.52,0 64.8,5.031 92.98,14.945 28.31,9.949 53.4,24.883 74.57,44.356 23.35,21.214 41.23,47.246 53.13,77.37 11.85,29.99 17.85,64.17 17.85,101.59 0,36.99 -6,70.96 -17.85,100.95 -11.89,30.1 -29.77,56.14 -53.12,77.37 m -28.01,-178.95 c 0,-31.48 -4.36,-57.21 -12.96,-76.47 -8.58,-19.19 -19.6,-34.36 -32.77,-45.08 -13.15,-10.73 -28.03,-18.023 -44.22,-21.671 -16.58,-3.738 -33.17,-5.629 -49.32,-5.629 h -90.17 v 297.68 h 90.17 c 15.71,0 32.09,-1.89 48.68,-5.63 16.19,-3.64 31.2,-10.83 44.61,-21.39 13.33,-10.52 24.44,-25.66 33,-45.03 8.61,-19.47 12.98,-45.31 12.98,-76.78"
         style="fill:#222d62;fill-opacity:1;fill-rule:nonzero;stroke:none"
         id="path38" />
      <path
         d="m 1864.63,514.063 c 19.02,20.226 41.81,36.683 67.74,48.914 25.81,12.136 53.91,18.3 83.53,18.3 18.32,0 36.3,-2.695 53.44,-8.023 17.16,-5.324 33.74,-12.852 49.3,-22.399 15.51,-9.55 29.88,-20.75 42.72,-33.285 12.86,-12.574 24.22,-26.211 33.77,-40.535 l 3.19,-4.773 133.95,54.211 -3.9,6.976 c -15.05,26.953 -33.8,51.914 -55.72,74.16 -21.95,22.239 -46.55,41.61 -73.13,57.559 -26.63,15.961 -55.84,28.508 -86.84,37.301 -31.02,8.777 -63.59,13.222 -96.78,13.222 -48.85,0 -95.57,-9.535 -138.86,-28.359 -43.17,-18.781 -81.41,-44.66 -113.68,-76.914 -32.26,-32.266 -58.13,-70.516 -76.9,-113.707 -18.81,-43.242 -28.34,-89.957 -28.34,-138.859 0,-48.911 9.53,-95.622 28.34,-138.872 18.77,-43.199 44.65,-81.468 76.9,-113.699 32.24,-32.2615 70.49,-58.1404 113.69,-76.9294 C 1920.33,9.53906 1967.05,0 2015.9,0 c 33.19,0 65.76,4.44922 96.78,13.2305 30.95,8.7578 60.17,21.3086 86.85,37.3008 26.61,15.9687 51.2,35.3281 73.12,57.5507 21.95,22.27 40.71,47.559 55.76,75.168 l 3.78,6.93 -133.87,54.172 -3.19,-4.77 c -9.59,-14.383 -20.97,-28.191 -33.83,-41.043 -12.81,-12.828 -27.16,-24.16 -42.66,-33.699 -15.51,-9.531 -32.1,-17.059 -49.3,-22.399 -17.14,-5.32 -35.12,-8.019 -53.44,-8.019 -29.64,0 -57.75,6.16 -83.53,18.297 -25.93,12.222 -48.72,28.672 -67.74,48.91 -19.09,20.269 -34.51,44.172 -45.84,71.031 -11.29,26.731 -17.02,55.391 -17.02,85.192 0,29.171 5.73,57.679 17.04,84.757 11.31,27.121 26.73,51.172 45.82,71.454"
         style="fill:#222d62;fill-opacity:1;fill-rule:nonzero;stroke:none"
         id="path40" />
      <path
         d="m 2729.62,134.422 c -29.59,0 -57.64,6.148 -83.36,18.297 -25.84,12.203 -48.74,28.812 -68.07,49.371 -19.32,20.551 -34.86,44.601 -46.19,71.492 -11.28,26.758 -16.99,55.418 -16.99,85.199 0,29.153 5.71,57.66 16.99,84.75 11.33,27.149 26.86,51.188 46.16,71.426 19.31,20.238 42.23,36.711 68.1,48.941 25.72,12.149 53.77,18.301 83.36,18.301 29.57,0 57.61,-6.152 83.33,-18.301 25.87,-12.23 48.79,-28.703 68.1,-48.925 19.31,-20.254 34.83,-44.293 46.16,-71.442 11.29,-27.105 17.01,-55.629 17.01,-84.75 0,-29.75 -5.72,-58.41 -17,-85.199 -11.33,-26.891 -26.88,-50.941 -46.2,-71.492 -19.33,-20.559 -42.23,-37.168 -68.06,-49.371 -25.73,-12.149 -53.77,-18.297 -83.34,-18.297 z m 253,477.855 c -32.28,32.266 -70.53,58.145 -113.69,76.914 -43.25,18.809 -90.28,28.344 -139.78,28.344 -48.88,0 -95.6,-9.535 -138.85,-28.344 -43.19,-18.785 -81.44,-44.664 -113.69,-76.914 -32.27,-32.293 -58.15,-70.711 -76.9,-114.187 -18.81,-43.551 -28.34,-90.426 -28.34,-139.309 0,-49.519 9.54,-96.551 28.34,-139.801 18.77,-43.199 44.64,-81.468 76.9,-113.699 32.22,-32.2419 70.46,-58.1208 113.69,-76.9294 C 2633.58,9.53906 2680.3,0 2729.15,0 c 49.47,0 96.5,9.53906 139.78,28.3594 43.2,18.7812 81.45,44.6601 113.69,76.9216 32.26,32.258 58.13,70.508 76.9,113.699 18.8,43.25 28.34,90.282 28.34,139.801 0,48.883 -9.53,95.758 -28.34,139.309 -18.75,43.449 -44.62,81.879 -76.9,114.187"
         style="fill:#222d62;fill-opacity:1;fill-rule:nonzero;stroke:none"
         id="path42" />
      <path
         d="m 3535.97,316.879 -328.99,386.773 h -18.62 V 12.9688 H 3332 V 342.941 L 3535.95,96.9219 3740.85,343.012 V 12.9688 h 143.66 V 703.652 h -18.63 L 3535.97,316.879"
         style="fill:#222d62;fill-opacity:1;fill-rule:nonzero;stroke:none"
         id="path44" />
      <path
         d="m 4370.36,316.879 -329,386.773 h -18.62 V 12.9688 h 143.64 V 342.941 L 4370.34,96.9219 4575.24,343.012 V 12.9688 h 143.65 V 703.652 h -18.62 L 4370.36,316.879"
         style="fill:#222d62;fill-opacity:1;fill-rule:nonzero;stroke:none"
         id="path46" />
      <path
         d="m 4857.13,12.9688 h 512.9 V 143.68 h -369.26 v 145.101 h 327.62 V 420.43 h -327.62 v 155.289 h 369.26 v 128.867 h -512.9 V 12.9688"
         style="fill:#222d62;fill-opacity:1;fill-rule:nonzero;stroke:none"
         id="path48" />
      <path
         d="m 5629.79,575.719 h 170.99 c 21.28,0 38.31,-3.992 50.64,-11.864 12.52,-7.992 22.32,-17.789 29.11,-29.14 6.91,-11.559 11.58,-23.844 13.87,-36.504 2.38,-13.152 3.58,-24.559 3.58,-33.914 0,-18.012 -3.05,-33.848 -9.07,-47.07 -6.04,-13.305 -13.76,-24.575 -22.94,-33.504 -9.07,-8.836 -19.56,-15.461 -31.18,-19.723 -11.79,-4.328 -23.23,-6.52 -34.01,-6.52 h -170.99 z m 275,-331.047 c 39.9,17.41 72.56,44.789 97.18,81.476 26.32,39.293 39.67,85.766 39.67,138.149 0,34.633 -5.95,67.101 -17.66,96.547 -11.74,29.418 -28.32,55.121 -49.28,76.39 -20.98,21.258 -46.58,37.989 -76.1,49.727 -29.49,11.695 -62.33,17.625 -97.64,17.625 H 5486.15 V 12.9688 h 143.64 V 228.629 h 117.51 c 25.2,-36.078 50.58,-71.84 75.46,-106.309 25.86,-35.8395 52.6,-71.7106 79.46,-106.6012 l 2.12,-2.75 h 171.83 l -8.11,11.1796 C 6014.54,97.8594 5959.63,172.02 5904.79,244.672"
         style="fill:#222d62;fill-opacity:1;fill-rule:nonzero;stroke:none"
         id="path50" />
      <path
         d="m 6315.39,514.063 c 19.02,20.226 41.82,36.683 67.74,48.914 25.81,12.136 53.92,18.3 83.54,18.3 18.32,0 36.3,-2.695 53.44,-8.023 17.15,-5.324 33.74,-12.852 49.29,-22.399 15.51,-9.55 29.89,-20.75 42.72,-33.285 12.87,-12.574 24.22,-26.211 33.78,-40.535 l 3.18,-4.773 133.95,54.211 -3.89,6.976 c -15.05,26.953 -33.8,51.914 -55.73,74.16 -21.94,22.239 -46.54,41.61 -73.12,57.559 -26.63,15.961 -55.84,28.508 -86.85,37.301 -31.02,8.777 -63.58,13.222 -96.77,13.222 -48.85,0 -95.57,-9.535 -138.86,-28.359 -43.17,-18.781 -81.42,-44.66 -113.69,-76.914 -32.26,-32.266 -58.13,-70.516 -76.89,-113.707 -18.82,-43.242 -28.35,-89.957 -28.35,-138.859 0,-48.911 9.53,-95.622 28.35,-138.872 18.77,-43.199 44.65,-81.468 76.89,-113.699 32.24,-32.2615 70.5,-58.1404 113.7,-76.9294 C 6371.1,9.53906 6417.82,0 6466.67,0 c 33.19,0 65.75,4.44922 96.77,13.2305 30.96,8.7578 60.18,21.3086 86.85,37.3008 26.61,15.9687 51.21,35.3281 73.12,57.5507 21.95,22.27 40.71,47.559 55.76,75.168 l 3.79,6.93 -133.88,54.172 -3.18,-4.77 c -9.59,-14.383 -20.97,-28.191 -33.83,-41.043 -12.82,-12.828 -27.16,-24.16 -42.66,-33.699 -15.51,-9.531 -32.1,-17.059 -49.31,-22.399 -17.13,-5.32 -35.11,-8.019 -53.43,-8.019 -29.65,0 -57.76,6.16 -83.53,18.297 -25.93,12.222 -48.73,28.672 -67.75,48.91 -19.09,20.269 -34.5,44.172 -45.83,71.031 -11.29,26.731 -17.02,55.391 -17.02,85.192 0,29.171 5.73,57.679 17.03,84.757 11.32,27.121 26.73,51.172 45.82,71.454"
         style="fill:#222d62;fill-opacity:1;fill-rule:nonzero;stroke:none"
         id="path52" />
      <path
         d="m 6874.88,12.9688 h 143.65 V 703.652 H 6874.88 V 12.9688"
         style="fill:#222d62;fill-opacity:1;fill-rule:nonzero;stroke:none"
         id="path54" />
      <path
         d="m 7536.59,246.422 h -171.18 l 86,181.027 z m -95.93,457.23 -353.33,-690.6832 h 156.59 l 51.82,106.4412 h 310.51 L 7659,12.9688 h 156.55 L 7462.22,703.652 h -21.56"
         style="fill:#222d62;fill-opacity:1;fill-rule:nonzero;stroke:none"
         id="path56" />
      <path
         d="M 8018.55,141.82 V 704.586 H 7874.91 V 12.9688 h 501.8 V 141.82 h -358.16"
         style="fill:#222d62;fill-opacity:1;fill-rule:nonzero;stroke:none"
         id="path58" />
      <path
         d="M 1349.15,11.5508 H 0 V 1360.7 H 1349.15 V 11.5508"
         style="fill:#222d62;fill-opacity:1;fill-rule:nonzero;stroke:none"
         id="path60" />
      <path
         d="M 1290.85,69.8594 H 58.3047 V 1302.4 H 1290.85 Z M 72.0625,83.6211 H 1277.09 V 1288.64 H 72.0625 V 83.6211"
         style="fill:#ffffff;fill-opacity:1;fill-rule:nonzero;stroke:none"
         id="path62" />
      <path
         d="m 839.945,901.727 94.625,63.164 94.63,-63.164 -30.833,109.513 89.313,70.48 -113.68,4.51 -39.43,106.73 -39.425,-106.73 -113.684,-4.51 89.316,-70.48 -30.832,-109.513"
         style="fill:#ffffff;fill-opacity:1;fill-rule:nonzero;stroke:none"
         id="path64" />
      <path
         d="m 1008.4,496.871 c -15.775,21.481 -35.771,38.227 -59.783,49.988 17.485,12.348 31.828,28.008 42.887,46.77 16.086,27.363 24.246,57.527 24.246,89.695 0,20.035 -3.53,40.188 -10.46,59.871 -7.024,19.727 -17.04,37.602 -29.81,53.121 -12.902,15.688 -28.808,28.629 -47.199,38.442 -18.863,10.047 -40.09,15.133 -63.097,15.133 H 553.836 V 568.43 c -30.82,-1.641 -59.832,4.148 -85.52,17.254 -13.289,6.793 -25.386,15.351 -36.75,24.879 -8.691,7.32 -17.058,15.035 -24.527,23.863 -17.367,20.504 -31.109,44.41 -40.859,71.027 -9.766,26.641 -14.7,55.149 -14.7,84.75 0,26.543 4.165,53.289 12.403,79.516 8.101,25.992 20.488,49.668 36.746,70.39 16.094,20.539 36.273,37.379 59.949,50.133 34.113,18.308 77.824,24.168 124.574,14.188 14.344,-3.06 28.555,-8.282 42.176,-15.477 13.578,-7.199 26.277,-16.812 37.742,-28.523 11.442,-11.715 21.461,-26.567 29.731,-44.094 l 6.945,-14.719 83.863,54.352 -5.382,11.258 c -19.602,40.973 -49.954,74.663 -90.223,100.173 -40.34,25.48 -89.047,38.39 -144.824,38.39 -46.828,0 -89.469,-9.28 -126.649,-27.57 -36.883,-18.16 -68.554,-42.38 -94.148,-72.08 -25.469,-29.585 -45.031,-63.413 -58.172,-100.495 -13.09,-37.036 -19.75,-74.719 -19.75,-112.055 0,-39.649 7.23,-79.149 21.492,-117.332 14.281,-38.176 34.668,-72.774 60.656,-102.84 26.012,-30.086 57.286,-54.836 92.942,-73.547 3.254,-1.711 6.711,-2.937 10.015,-4.496 2.098,-0.98 4.207,-1.937 6.329,-2.863 6.363,-2.778 12.832,-5.293 19.402,-7.543 4.387,-1.496 8.812,-2.875 13.289,-4.133 6.711,-1.887 13.523,-3.5 20.437,-4.836 4.61,-0.895 9.262,-1.66 13.957,-2.301 11.739,-1.601 23.747,-2.418 36.008,-2.418 4.211,0 8.563,0.082 12.825,0.285 20.035,0.954 40.566,4.125 61.386,9.43 25.121,6.41 49.301,15.922 71.883,28.227 8.508,4.625 16.723,9.687 24.625,15.156 5.266,3.644 10.391,7.465 15.363,11.465 7.465,6 14.594,12.39 21.36,19.148 4.57,4.578 8.898,9.356 12.98,14.317 4.086,4.957 7.922,10.109 11.516,15.433 7.179,10.688 13.371,22.082 18.492,34.11 l 3.668,9.464 -8.957,8.043 0.137,0.063 -64.403,59.18 c 0,0 -6.597,-15.172 -10.226,-22.098 -3.625,-6.926 -11.211,-19.129 -16.489,-26.055 -7.648,-10.039 -14.019,-17.707 -22.375,-26.078 -4.73,-4.695 -9.726,-8.855 -14.738,-12.961 v 147.383 h 181.059 c 10.355,0 19.851,-2.039 28.98,-6.273 8.992,-4.129 16.711,-9.969 22.867,-17.262 6.45,-7.688 11.684,-17.024 15.59,-27.692 3.93,-10.738 5.891,-22.433 5.891,-34.73 0,-11.594 -2.074,-22.719 -6.156,-33.074 -4.141,-10.438 -9.75,-19.598 -16.664,-27.235 -6.961,-7.664 -15,-13.605 -24.664,-18.187 -9.161,-4.379 -19.563,-6.594 -30.887,-6.594 h -27.305 c -3.09,-5.512 -6.351,-10.926 -9.863,-16.152 -8.199,-12.164 -17.621,-23.606 -28.035,-34.043 -13.692,-13.676 -28.821,-26.039 -44.938,-36.836 -2.648,-1.774 -1.5,-2.84 -0.133,-2.84 h 8.864 124.964 c 11.125,0 21.481,-2.332 30.704,-6.941 9.464,-4.719 17.738,-11.211 24.57,-19.235 7.012,-8.23 12.699,-18.004 16.891,-29.023 4.132,-10.992 6.21,-22.488 6.21,-34.149 0,-11.543 -2.179,-22.75 -6.511,-33.355 -4.278,-10.524 -10.379,-19.902 -18.071,-27.871 -7.8,-8.02 -16.91,-14.531 -27.097,-19.36 -9.766,-4.703 -20.723,-7.05 -32.571,-7.05 H 658.035 v 146.382 c -11.676,-4.39 -23.59,-8.183 -35.703,-11.273 -21.187,-5.398 -43.141,-8.578 -67.121,-9.723 -0.414,-0.019 -0.898,-0.054 -1.375,-0.093 V 223.82 H 851.73 c 25.61,0 49.989,3.95 72.403,11.719 22.601,7.82 42.808,19.18 60.078,33.691 17.409,14.68 31.369,32.668 41.469,53.481 10.17,20.91 15.33,44.238 15.33,69.359 0,39.934 -10.97,75.188 -32.61,104.801"
         style="fill:#ffffff;fill-opacity:1;fill-rule:nonzero;stroke:none"
         id="path66" />
      <path
         d="m 1034.09,245.191 c 2.86,0 5.39,0.278 5.39,3.649 0,2.808 -2.75,3.148 -5.06,3.148 h -4.6 v -6.797 z m -4.27,-13.211 H 1026 v 23.27 h 8.82 c 5.62,0 8.48,-1.969 8.48,-6.691 0,-4.207 -2.58,-5.957 -6.07,-6.348 l 6.52,-10.231 h -4.32 l -6.02,9.95 h -3.59 z m 4.16,29.391 c -9.11,0 -16.19,-7.133 -16.19,-17.359 0,-9.551 6.18,-17.371 16.19,-17.371 8.99,0 16.07,7.089 16.07,17.371 0,10.226 -7.08,17.359 -16.07,17.359 z m 0,-38.383 c -12.09,0 -20.68,9.051 -20.68,21.024 0,12.636 9.55,21.019 20.68,21.019 11.01,0 20.56,-8.383 20.56,-21.019 0,-12.653 -9.55,-21.024 -20.56,-21.024"
         style="fill:#ffffff;fill-opacity:1;fill-rule:nonzero;stroke:none"
         id="path68" />
    </g>
  </g>
</svg>
